<?xml version="1.0" standalone="no"?><!DOCTYPE svg PUBLIC "-//W3C//DTD SVG 1.1//EN" "http://www.w3.org/Graphics/SVG/1.1/DTD/svg11.dtd"><svg t="1524886942062" class="icon" style="" viewBox="0 0 1024 1024" version="1.1" xmlns="http://www.w3.org/2000/svg" p-id="1900" xmlns:xlink="http://www.w3.org/1999/xlink" width="200" height="200"><defs><style type="text/css"></style></defs><path d="M252.126274 629.227911c-46.808072 35.291784-85.232197 78.965469-114.204042 129.809461-29.754674 52.217269-47.800679 109.050672-53.636594 168.921247-1.49505 15.344476 9.730619 28.995381 25.075095 30.491455 0.920976 0.090051 1.833765 0.134053 2.741437 0.134053 14.196327 0 26.343995-10.786671 27.750017-25.209148 10.000771-102.597703 63.173808-197.207477 145.885602-259.56878 12.30935-9.280364 14.765285-26.784016 5.483898-39.09439C281.939277 622.401436 264.436648 619.944478 252.126274 629.227911z" p-id="1901"></path><path d="M918.070412 928.981926c-10.220782-104.85-58.880015-201.853287-137.01456-273.14089-43.911092-40.063461-95.099938-70.065775-150.290935-88.766696 82.591043-45.689598 138.523937-133.682675 138.523937-234.751558 0-148.074454-120.03791-268.111341-268.111341-268.111341S233.066173 184.248328 233.066173 332.322781c0 144.609539 114.491591 262.457574 257.770831 267.8944 0.986467 0.105401 1.986237 0.162706 3.000334 0.162706 191.612039 0 350.104773 143.596466 368.667547 334.0184 1.406023 14.423501 13.552667 25.209148 27.750017 25.209148 0.906649 0 1.820462-0.044002 2.741437-0.134053 14.430664-1.407046 25.219381-13.563924 25.209148-27.76946C918.203442 930.803411 918.15944 929.895739 918.070412 928.981926zM288.895713 332.322781c0-56.70242 22.080901-110.011556 62.176085-150.105716 40.095183-40.095183 93.403297-62.176085 150.105716-62.176085s110.011556 22.080901 150.105716 62.176085c40.095183 40.095183 62.176085 93.403297 62.176085 150.105716s-22.080901 110.011556-62.176085 150.105716c-40.095183 40.095183-93.403297 62.176085-150.105716 62.176085s-110.011556-22.080901-150.105716-62.176085C310.976614 442.333314 288.895713 389.025201 288.895713 332.322781z" p-id="1902"></path></svg>