<?xml version="1.0" standalone="no"?><!DOCTYPE svg PUBLIC "-//W3C//DTD SVG 1.1//EN" "http://www.w3.org/Graphics/SVG/1.1/DTD/svg11.dtd"><svg t="1525762177012" class="icon" style="" viewBox="0 0 1024 1024" version="1.1" xmlns="http://www.w3.org/2000/svg" p-id="5992" xmlns:xlink="http://www.w3.org/1999/xlink" width="200" height="200"><defs><style type="text/css"></style></defs><path d="M934.4 262.4v544C928 928 742.4 1024 518.4 1024c-230.4 0-409.6-96-416-217.6v-544-32C89.6 102.4 275.2 0 512 0s422.4 102.4 422.4 230.4v32zM512 76.8c-204.8 0-358.4 83.2-358.4 160s153.6 160 358.4 160c204.8 0 358.4-83.2 358.4-160S716.8 76.8 512 76.8z m358.4 288c-76.8 64-211.2 102.4-364.8 102.4-147.2 0-288-38.4-358.4-102.4v38.4c19.2 83.2 185.6 147.2 364.8 147.2 179.2 0 345.6-70.4 364.8-147.2v-38.4z m0 147.2C800 576 659.2 614.4 505.6 614.4c-147.2 0-281.6-44.8-358.4-102.4v32c19.2 83.2 185.6 147.2 358.4 147.2 179.2 0 345.6-70.4 364.8-147.2v-32z m0 134.4c-70.4 64-211.2 102.4-364.8 102.4-147.2 0-288-38.4-358.4-102.4v32c19.2 83.2 185.6 147.2 358.4 147.2 179.2 0 345.6-70.4 364.8-147.2v-32z m0 160v-19.2c-70.4 64-211.2 102.4-364.8 102.4-147.2 0-288-38.4-358.4-102.4v19.2C160 889.6 326.4 960 512 960c179.2 0 352-70.4 358.4-153.6z m-281.6-576c19.2 6.4 32 25.6 32 38.4 0 25.6-12.8 38.4-38.4 51.2-19.2 6.4-38.4 12.8-57.6 12.8v25.6h-19.2v-25.6c-25.6 0-51.2-6.4-64-12.8-25.6-12.8-38.4-25.6-38.4-51.2h57.6c0 12.8 6.4 19.2 6.4 25.6 6.4 6.4 19.2 12.8 32 12.8v-64l-12.8-6.4c-25.6 0-44.8-6.4-57.6-19.2-12.8-6.4-19.2-19.2-19.2-32 0-6.4 0-19.2 6.4-25.6l19.2-19.2c12.8-6.4 19.2-6.4 32-12.8h38.4v-19.2h19.2V128c19.2 0 38.4 6.4 51.2 12.8 25.6 12.8 38.4 25.6 38.4 44.8h-57.6c0-6.4-6.4-12.8-6.4-19.2-6.4-6.4-12.8-6.4-25.6-6.4v51.2c32 6.4 57.6 12.8 64 19.2z m-64 70.4c12.8 0 19.2 0 25.6-6.4 6.4-6.4 12.8-12.8 12.8-19.2 0-6.4-6.4-12.8-12.8-19.2-6.4 0-12.8-6.4-25.6-6.4v51.2zM505.6 160c-12.8 0-19.2 0-25.6 6.4-12.8 0-12.8 6.4-12.8 12.8s6.4 12.8 12.8 19.2c6.4 0 12.8 6.4 25.6 6.4V160z" p-id="5993"></path></svg>