<?xml version="1.0" standalone="no"?><!DOCTYPE svg PUBLIC "-//W3C//DTD SVG 1.1//EN" "http://www.w3.org/Graphics/SVG/1.1/DTD/svg11.dtd"><svg t="1526265165308" class="icon" style="" viewBox="0 0 1024 1024" version="1.1" xmlns="http://www.w3.org/2000/svg" p-id="1901" xmlns:xlink="http://www.w3.org/1999/xlink" width="200" height="200"><defs><style type="text/css"></style></defs><path d="M892.141368 389.017014H579.085396c-37.049824 0-67.083861 30.030967-67.083861 67.078745v111.806435c0 37.049824 30.033014 67.085908 67.083861 67.085908H892.142391c37.047778 0 67.081815-30.036084 67.081815-67.085908v-111.806435c-0.001023-37.047778-30.034037-67.078745-67.082838-67.078745z m22.361287 201.245444h-357.778546V433.736519h357.778546v156.525939z m-44.722574 89.445148c-12.350283 0-22.361287 10.013051-22.361287 22.361287v111.805412c0 12.352329-10.011005 22.36538-22.361287 22.36538H131.861702c-12.350283 0-22.361287-10.013051-22.361287-22.36538V210.124671c0-12.348236 10.011005-22.35924 22.361287-22.35924h693.196828c12.350283 0 22.361287 10.011005 22.361287 22.35924v111.806436c0 12.348236 10.011005 22.361287 22.361287 22.361287s22.361287-10.013051 22.361287-22.361287v-111.806436c0-37.049824-30.036084-67.085908-67.083861-67.085907H131.861702c-37.049824 0-67.085908 30.03506-67.085908 67.085907v603.749634c0 37.047778 30.036084 67.085908 67.085908 67.085908h693.196828c37.047778 0 67.083861-30.03813 67.083861-67.085908V702.068893c-0.001023-12.348236-10.012028-22.361287-22.36231-22.361287zM836.239174 545.542954c18.523889 0 33.541931-15.015995 33.54193-33.539884 0-18.525935-15.018042-33.546024-33.54193-33.546024s-33.541931 15.020088-33.541931 33.546024c0 18.523889 15.017018 33.539884 33.541931 33.539884z" fill="#027be3" p-id="1902"></path></svg>