<?xml version="1.0" standalone="no"?><!DOCTYPE svg PUBLIC "-//W3C//DTD SVG 1.1//EN" "http://www.w3.org/Graphics/SVG/1.1/DTD/svg11.dtd"><svg t="1525859530042" class="icon" style="" viewBox="0 0 1024 1024" version="1.1" xmlns="http://www.w3.org/2000/svg" p-id="2272" xmlns:xlink="http://www.w3.org/1999/xlink" width="200" height="200"><defs><style type="text/css"></style></defs><path d="M748.35456 894.3104H504.1152v-65.38752c0-47.47776 33.89952-89.28768 84.36736-104.0384 7.9872-2.33472 13.97248-9.6512 15.27296-18.67264 1.29536-9.00608-2.34496-18.02752-9.27744-22.98368-16.84992-12.04224-26.9056-32.384-26.9056-54.42048 0-35.73248 26.31168-64.80896 58.65472-64.80896 32.36352 0 58.68544 29.07648 58.68544 64.80896 0 22.03648-10.06592 42.37824-26.92096 54.42048-6.9376 4.95104-10.57792 13.97248-9.28256 22.98368 1.3056 9.02656 7.29088 16.33792 15.27808 18.67264 50.45248 14.75072 84.36736 56.56064 84.36736 104.0384v65.38752z m-40.71936-200.53504c12.22656-18.62656 19.04128-41.22112 19.04128-64.9728 0-61.16864-45.06112-110.94016-100.44416-110.94016-55.3728 0-100.42368 49.77152-100.42368 110.94016 0 23.7568 6.8096 46.35136 19.03616 64.96256-50.45248 27.15648-82.4832 78.0544-82.4832 135.15264v88.45312c0 12.73856 9.344 23.06048 20.87936 23.06048h286.0032c11.53024 0 20.87936-10.32192 20.87936-23.06048v-88.45312c-0.01024-57.09824-32.04096-107.98592-82.48832-135.1424zM156.79488 350.40256v443.30496c0 18.11968-13.35296 32.8704-29.76768 32.8704s-29.76256-14.75072-29.76256-32.8704v-660.48c0-2.5088 1.90976-4.61312 4.1728-4.61312h154.74688c8.07424 0 21.4016 6.39488 26.89536 12.89728l14.50496 17.18272c13.29152 15.70304 37.96992 27.5456 57.42592 27.5456h479.47264c2.26304 0 4.1728 2.10944 4.1728 4.608v108.81536H202.7264c-25.32352 0-45.93152 22.7584-45.93152 50.7392z m762.29632-50.7392h-38.66624V190.84288c0-27.9808-20.608-50.73408-45.93664-50.73408H355.01056c-8.06912 0-21.39648-6.4-26.89024-12.89728l-14.50496-17.19808c-13.2864-15.70304-37.96992-27.53536-57.42592-27.53536H101.44256c-25.32864 0-45.93664 22.76352-45.93664 50.74432v660.48512c0 43.56096 32.08192 79.01184 71.52128 79.01184h247.6288c11.53024 0 20.87936-10.3424 20.87936-23.07072 0-12.7488-9.344-23.07072-20.87936-23.07072H191.98464a85.23264 85.23264 0 0 0 6.57408-32.8704V350.40256c0-2.5088 1.90464-4.61312 4.1728-4.61312h656.49152c0.11264 0 0.20992 0.03072 0.32256 0.03072s0.20992-0.03072 0.32256-0.03072h59.21792c2.25792 0 4.1728 2.10432 4.1728 4.61312v443.30496c0 18.11968-13.35808 32.8704-29.7728 32.8704h-15.67744c-11.53536 0-20.87936 10.32192-20.87936 23.07072 0 12.72832 9.344 23.0656 20.87936 23.0656h15.67744c39.44448 0 71.53152-35.45088 71.53152-79.01184V350.40256c0-27.9808-20.608-50.7392-45.9264-50.7392z" fill="" p-id="2273"></path></svg>