<?xml version="1.0" standalone="no"?><!DOCTYPE svg PUBLIC "-//W3C//DTD SVG 1.1//EN" "http://www.w3.org/Graphics/SVG/1.1/DTD/svg11.dtd"><svg t="1526031366529" class="icon" style="" viewBox="0 0 1024 1024" version="1.1" xmlns="http://www.w3.org/2000/svg" p-id="1901" xmlns:xlink="http://www.w3.org/1999/xlink" width="200" height="200"><defs><style type="text/css"></style></defs><path d="M928.224 306.336c0-28.672-23.296-51.136-52.96-51.136h-85.76v-42.144c0-43.296-36.128-78.464-80.512-78.464-18.016 0-34.432 6.08-47.776 16.032v-9.056c0-43.296-36.096-78.496-80.48-78.496-26.208 0-49.312 12.672-63.84 31.904-14.688-19.264-38.016-31.904-64.448-31.904-43.968 0-79.744 35.232-79.744 78.496v9.28c-13.536-10.016-30.208-16.256-48.512-16.256-44 0-79.776 35.2-79.776 78.464V255.2h-94.88c-29.696 0-52.96 22.464-52.96 51.136V652.16c0 28.192 23.744 51.136 52.96 51.136h95.2c3.04 147.968 124.48 267.488 273.664 267.488 115.936 0 217.248-72.064 256.736-179.968 14.24 6.816 30.08 11.008 47.104 11.008 58.272 0 105.696-45.696 105.696-101.856v-98.272h0.32v-295.36zM708.992 166.592c26.752 0 48.512 20.832 48.512 46.464v40.96h-96.288v-40.96c0-25.632 21.44-46.464 47.776-46.464z m-128.256-71.52c26.72 0 48.48 20.864 48.48 46.496V254.016H532.96V141.568c0-25.632 21.44-46.496 47.776-46.496z m-176.032 46.496c0-25.632 21.408-46.496 47.744-46.496 26.752 0 48.512 20.864 48.512 46.496v112.48h-96.256V141.568z m-128.256 71.488c0-25.632 21.44-46.464 47.776-46.464 26.752 0 48.512 20.832 48.512 46.464v40.96h-96.288v-40.96zM128.576 652.16V306.336c0-10.72 9.216-19.136 20.96-19.136h725.728c11.744 0 20.96 8.416 20.96 19.136v218.112c-19.104-18.176-45.184-29.504-74.016-29.504-58.656 0-106.4 46.016-106.4 102.528v1.088c-0.032 1.056-0.32 2.016-0.32 3.104v69.6H149.536c-11.744 0.032-20.96-8.384-20.96-19.104z m389.792 286.624c-129.696 0-235.872-102.176-241.696-230.016H715.52c0.64 26.56 11.488 51.744 30.336 70.848-34.72 95.648-124.896 159.168-227.488 159.168z m378.176-238.816c0 38.848-33.344 70.464-74.304 70.464-40.32 0-73.056-30.08-74.72-67.552V601.696c0-41.024 33.536-74.4 74.72-74.4 40.8 0 74.016 33.376 74.016 74.4h0.32v98.272z" fill="" p-id="1902"></path><path d="M508.96 319.072c-87.776 0-158.976 72.928-158.976 161.152S421.184 640 508.96 640s161.024-71.552 161.024-159.776-73.248-161.152-161.024-161.152z m73.664 193.184c8.832 0 16 7.168 16 16s-7.168 16-16 16H526.4v24.096c0 8.16-6.336 15.392-15.392 15.392-8.16 0-14.496-7.264-14.496-15.392v-24.096h-59.136c-8.832 0-16-7.168-16-16s7.168-16 16-16h59.136v-31.84l-0.576-0.832h-58.56c-8.832 0-16-7.168-16-16s7.168-16 16-16h36.768l-35.712-52.48c-4.576-7.264-2.72-17.248 4.544-21.792 6.336-4.544 16.352-2.72 20.832 4.544l47.296 69.504 47.968-69.504c4.576-7.264 14.528-9.056 20.864-4.544 7.264 4.544 9.056 14.528 4.544 21.792l-36.256 52.48h34.4c8.832 0 16 7.168 16 16s-7.168 16-16 16H526.4v32.672h56.224z" fill="" p-id="1903"></path></svg>