<?xml version="1.0" standalone="no"?><!DOCTYPE svg PUBLIC "-//W3C//DTD SVG 1.1//EN" "http://www.w3.org/Graphics/SVG/1.1/DTD/svg11.dtd"><svg t="1525850649522" class="icon" style="" viewBox="0 0 1024 1024" version="1.1" xmlns="http://www.w3.org/2000/svg" p-id="2020" xmlns:xlink="http://www.w3.org/1999/xlink" width="200" height="200"><defs><style type="text/css"></style></defs><path d="M511.989767 549.276998c-35.31839 0-70.616314-13.438057-97.491405-40.313148-7.835456-7.835456-7.835456-20.528546 0-28.364001 7.835456-7.835456 20.528546-7.835456 28.364001 0 38.119179 38.119179 100.155071 38.119179 138.27425 0 7.835456-7.835456 20.528546-7.835456 28.364001 0s7.835456 20.528546 0 28.364001C582.625524 535.838941 547.308157 549.276998 511.989767 549.276998z" p-id="2021"></path><path d="M786.697339 815.277258 237.302661 815.277258c-6.288217 0-12.20395-2.937912-16.003486-7.953136-3.781116-5.0142-5.0142-11.498892-3.310396-17.550725 23.721261-83.995019 79.58764-147.461493 166.32512-189.067077-55.200206-40.390919-89.225137-105.444541-89.225137-175.061085 0-119.607098 97.315396-216.921471 216.921471-216.921471s216.902028 97.315396 216.902028 216.921471c0 69.617567-34.005488 134.670166-89.205695 175.061085 86.73748 41.586141 142.603859 105.052614 166.305677 189.067077 1.703805 6.052856 0.469698 12.536524-3.329838 17.550725C798.901289 812.338323 792.985556 815.277258 786.697339 815.277258zM265.274736 775.159562 758.744707 775.159562c-27.796066-69.440535-84.954881-120.723525-170.282245-152.672168-7.561209-2.820232-12.69309-9.911744-13.006222-17.98256-0.333598-8.05035 4.211928-15.533788 11.518335-18.961864 61.859883-29.049616 101.81999-91.811032 101.81999-159.89978 0-97.491405-79.313394-176.804798-176.785356-176.804798-97.491405 0-176.804798 79.313394-176.804798 176.804798 0 68.088748 39.960107 130.850164 101.81999 159.89978 7.306406 3.428076 11.850909 10.910491 11.518335 18.961864-0.313132 8.070816-5.446036 15.141862-13.006222 17.98256C350.229616 654.456502 293.070802 705.738469 265.274736 775.159562z" p-id="2022"></path></svg>