<?xml version="1.0" standalone="no"?><!DOCTYPE svg PUBLIC "-//W3C//DTD SVG 1.1//EN" "http://www.w3.org/Graphics/SVG/1.1/DTD/svg11.dtd"><svg t="1525770878164" class="icon" style="" viewBox="0 0 1024 1024" version="1.1" xmlns="http://www.w3.org/2000/svg" p-id="1900" xmlns:xlink="http://www.w3.org/1999/xlink" width="200" height="200"><defs><style type="text/css"></style></defs><path d="M776.21248 391.04512c-19.43552-20.50048-40.20224-38.8096-60.96896-54.72256-3.11296-2.37568-5.48864-4.05504-8.25344-6.08256 38.58432-13.29152 65.57696-45.07648 65.57696-82.71872 0-50.688-48.00512-89.45664-105.04192-89.45664-13.12768 0-25.21088 2.47808-36.0448 6.59456-5.03808 1.92512-8.8064 3.87072-11.93984 5.67296-1.98656 0.83968-6.2464-0.1024-7.41376-1.55648l-0.06144 0.04096c-4.36224-6.53312-10.89536-14.62272-20.43904-22.91712-18.14528-15.79008-39.6288-25.53856-64.16384-25.53856-24.53504 0-46.01856 9.74848-64.16384 25.53856-9.3184 8.11008-15.70816 15.9744-20.0704 22.4256l-0.02048-0.02048c-1.65888 1.96608-5.91872 2.9696-7.41376 2.2528-3.1744-1.86368-7.0656-3.91168-12.30848-5.89824-10.83392-4.13696-22.91712-6.59456-36.0448-6.59456-57.01632 0-105.04192 38.76864-105.04192 89.45664 0 32.19456 19.80416 60.04736 49.62304 75.79648-2.9696 2.10944-6.12352 4.4032-9.54368 6.94272-20.74624 15.50336-41.472 33.60768-60.88704 54.14912-56.36096 59.74016-90.60352 128.04096-90.60352 203.8784 0 210.28864 156.38528 310.29248 344.7808 310.29248 78.9504 0 156.13952-15.79008 218.58304-53.0432 84.74624-50.56512 132.95616-135.51616 132.95616-257.24928C867.34848 517.03808 832.88064 450.84672 776.21248 391.04512zM515.80928 851.64032c-165.82656 0-298.10688-84.5824-298.10688-263.33184 0-62.07488 28.91776-119.76704 77.76256-171.54048 17.42848-18.47296 36.16768-34.816 54.86592-48.80384 6.51264-4.87424 12.55424-9.09312 17.92-12.63616 3.13344-2.06848 5.28384-3.39968 6.28736-3.9936 26.3168-17.42848 23.81824-48.128-1.92512-61.2352 0.06144-0.2048 0.08192-0.28672 0.06144-0.28672-0.1024-0.04096-0.1024-0.04096-0.16384-0.08192-0.12288-0.06144-0.12288-0.06144-0.3072-0.14336-0.4096-0.18432-0.4096-0.18432-0.90112-0.43008l0 0c-0.9216-0.43008-0.9216-0.43008-1.2288-0.57344l0 0c-0.26624-0.12288-0.28672-0.14336-0.65536-0.3072l-0.512-0.2048c-0.04096-0.02048-0.06144-0.04096-0.1024-0.06144l0 0.02048-2.70336-1.024c-22.75328-6.656-37.02784-22.8352-37.02784-39.50592 0-22.20032 25.12896-42.496 58.34752-42.496 7.14752 0 13.70112 1.3312 19.47648 3.54304 3.19488 1.2288 5.18144 2.29376 5.65248 2.60096l2.84672 1.6384c21.11488 10.30144 48.31232 3.80928 63.42656-14.15168l1.96608-2.72384c1.9456-3.13344 6.49216-8.8064 13.04576-14.52032 10.32192-8.99072 21.6064-14.11072 33.62816-14.11072 12.02176 0 23.30624 5.12 33.62816 14.11072 6.5536 5.71392 11.10016 11.40736 13.04576 14.52032l1.57696 2.23232c14.72512 18.45248 42.1888 24.59648 63.34464 14.848l3.31776-1.86368c0.47104-0.32768 2.4576-1.39264 5.65248-2.60096 5.77536-2.21184 12.32896-3.54304 19.47648-3.54304 33.21856 0 58.34752 20.29568 58.34752 42.496 0 16.67072-14.27456 32.82944-37.02784 39.50592l-3.33824 1.26976c-6.5536 3.072-10.89536 4.52608-12.51328 4.87424-32.72704 10.1376-38.2976 43.6224-11.776 62.32064 2.17088 1.39264 4.38272 2.82624 7.55712 5.0176 5.44768 3.72736 11.5712 8.13056 18.16576 13.18912 18.92352 14.49984 37.84704 31.19104 55.45984 49.7664 49.17248 51.87584 78.2336 107.70432 78.2336 164.864C820.65408 776.31488 694.41536 851.64032 515.80928 851.64032zM613.0688 575.05792c10.752 0 19.456-8.92928 19.456-19.92704s-8.704-19.92704-19.456-19.92704l-79.4624 0 73.76896-75.5712c7.59808-7.7824 7.59808-20.39808 0-28.18048-7.59808-7.7824-19.90656-7.7824-27.50464 0l-64.04096 65.59744-64.04096-65.59744c-7.59808-7.7824-19.90656-7.7824-27.50464 0-7.59808 7.7824-7.59808 20.39808 0 28.18048l73.76896 75.5712-79.4624 0c-10.752 0-19.456 8.92928-19.456 19.92704s8.704 19.92704 19.456 19.92704l77.80352 0 0 19.92704-77.80352 0c-10.752 0-19.456 8.9088-19.456 19.92704 0 10.99776 8.704 19.92704 19.456 19.92704l77.80352 0 0 57.38496c0 8.41728 8.704 15.23712 19.456 15.23712 10.73152 0 19.456-6.81984 19.456-15.23712l0-57.38496 77.80352 0c10.73152 0 19.456-8.92928 19.456-19.92704 0-10.99776-8.704-19.92704-19.456-19.92704l-77.80352 0 0-19.92704L613.0688 575.05792z" p-id="1901"></path></svg>